{"title":"Gone Girl 2014 CAM XviD READNFO-INFERNO","uid":11204754,"size":1587631991,"categoryP":"video","categoryS":"movies","magnet":"?xt=urn:btih:a13637cc52da7eaff90ff5d8ca6557e850f6d384&amp;dn=Gone+Girl+2014+CAM+XviD+READNFO-INFERNO&amp;tr=udp%3A%2F%2Ftracker.openbittorrent.com%3A80&amp;tr=udp%3A%2F%2Fopen.demonii.com%3A1337&amp;tr=udp%3A%2F%2Ftracker.coppersurfer.tk%3A6969&amp;tr=udp%3A%2F%2Fexodus.desync.com%3A6969","seeders":7,"leechers":0,"uploader":"TvTeam","files":4,"time":1413210596,"description":" &lt;a href=&quot;http://www.torrenting.com&quot; rel=&quot;nofollow&quot; target=&quot;_NEW&quot;&gt;http://www.torrenting.com&lt;/a&gt;\n\nSign up is OPEN - for time being. Come and have fun.\n\n\n....[IMG]http://lookpic.com/O/i2/542/On2XOOKy.jpeg[/IMG]\n\n[IMG]http://lookpic.com/O/i2/186/8Gdo9FJZ.jpeg[/IMG]\n\nSource: Jacks66...THANKS\n &lt;a href=&quot;\nhttp://www.imdb.com/title/tt2267998/&quot; rel=&quot;nofollow&quot; target=&quot;_NEW&quot;&gt;\nhttp://www.imdb.com/title/tt2267998/&lt;/a&gt;\n\nFormat                                   : AVI\nFormat/Info                              : Audio Video Interleave\nFile size                                : 1.45 GiB\nDuration                                 : 2h 24mn\nOverall bit rate                         : 1 436 Kbps\nWriting library                          : VirtualDub build 35491/release\n\nVideo\nID                                       : 0\nFormat                                   : MPEG-4 Visual\nFormat profile                           : Advanced Simple@L5\nFormat settings, BVOP                    : 2\nFormat settings, QPel                    : No\nFormat settings, GMC                     : No warppoints\nFormat settings, Matrix                  : Default (H.263)\nMuxing mode                              : Packed bitstream\nCodec ID                                 : XVID\nCodec ID/Hint                            : XviD\nDuration                                 : 2h 24mn\nBit rate                                 : 1 299 Kbps\nWidth                                    : 720 pixels\nHeight                                   : 400 pixels\nDisplay aspect ratio                     : 16:9\nFrame rate                               : 23.976 fps\nColor space                              : YUV\nChroma subsampling                       : 4:2:0\nBit depth                                : 8 bits\nScan type                                : Progressive\nCompression mode                         : Lossy\nBits/(Pixel*Frame)                       : 0.188\nStream size                              : 1.31 GiB (90%)\nWriting library                          : XviD 64\n\nAudio\nID                                       : 1\nFormat                                   : MPEG Audio\nFormat version                           : Version 1\nFormat profile                           : Layer 3\nMode                                     : Joint stereo\nMode extension                           : MS Stereo\nCodec ID                                 : 55\nCodec ID/Hint                            : MP3\nDuration                                 : 2h 24mn\nBit rate mode                            : Constant\nBit rate                                 : 128 Kbps\nChannel count                            : 2 channels\nSampling rate                            : 48.0 KHz\nCompression mode                         : Lossy\nStream size                              : 133 MiB (9%)\nAlignment                                : Split accross interleaves\nInterleave, duration                     : 42 ms (1.00 video frame)\nInterleave, preload duration             : 500 ms\n\nWorkdone:\nSource had a few issues, focus going in and out, cam movement, perspective needed fixing, beginning intro was a hour in half into the movie, sync fix, added more saturation, fix levels. After fixing all that it turn out pretty decent copy. Enjoy!\n\nAUDIO: \nRemoved noise and added few audio enhancements.\n\n[IMG]http://lookpic.com/O/i2/1611/y8VrNy.jpeg[/IMG]\n\n[IMG]http://lookpic.com/O/i2/797/zsJTpWQU.png[/IMG]\n[IMG]http://lookpic.com/O/i2/1020/Zgo5eU9s.png[/IMG]\n[IMG]http://lookpic.com/O/i2/1503/tDN628jF.png[/IMG]\n[IMG]http://lookpic.com/O/i2/338/CNS7Wq4z.png[/IMG]\n[IMG]http://lookpic.com/O/i2/1107/Kds1SFSE.png[/IMG]\n\nGreets go out too:\n\nTHC, VAIN, Justice, UNiQUE, Hive, CM8, BHRG, and MiLLENiUM \n\n[IMG]http://www.myimg.us/images/02.20.12/24265.gif[/IMG]","torrent":{"xt":"urn:btih:a13637cc52da7eaff90ff5d8ca6557e850f6d384","amp;dn":"Gone+Girl+2014+CAM+XviD+READNFO-INFERNO","amp;tr":["udp%3A%2F%2Ftracker.openbittorrent.com%3A80","udp%3A%2F%2Fopen.demonii.com%3A1337","udp%3A%2F%2Ftracker.coppersurfer.tk%3A6969","udp%3A%2F%2Fexodus.desync.com%3A6969"],"infoHash":"a13637cc52da7eaff90ff5d8ca6557e850f6d384","infoHashBuffer":{"type":"Buffer","data":[161,54,55,204,82,218,126,175,249,15,245,216,202,101,87,232,80,246,211,132]},"announce":[],"urlList":[]}}